<svg width="24" height="20" xmlns="http://www.w3.org/2000/svg">
 <defs>
  <style type="text/css">
   <![CDATA[
    .fil0 {fill:#AAAAAA}
    .fil2 {fill:#AAAAAA}
    .fil6 {fill:#AAAAAA}
    .fil5 {fill:#AAAAAA}
    .fil4 {fill:#AAAAAA}
    .fil3 {fill:#AAAAAA}
    .fil1 {fill:#AAAAAA;fill-rule:nonzero}
   ]]>
  </style>
 </defs>
 <g class="currentLayer">
  <title>Layer 1</title>
  <g class="selected" id="Layer_x0020_1">
   <metadata id="CorelCorpID_0Corel-Layer"/>
   <path stroke="null" id="svg_1" d="m0.771013,0.06928l22.436835,0c0.392123,0 0.712953,0.316456 0.712953,0.703244l0,3.307271c0,0.386778 -0.32083,0.703244 -0.712953,0.703244l-22.436835,0c-0.392123,0 -0.712943,-0.316466 -0.712943,-0.703244l0,-3.307271c0,-0.386788 0.32082,-0.703244 0.712943,-0.703244z" class="fil0"/>
   <path id="svg_9" d="m2.22055,12.46768l0,0zm1.20946,-1.17863l-0.00882,-4.48153c-0.00057,-0.32231 -0.13785,-0.61605 -0.35816,-0.8292c-0.22063,-0.21338 -0.52444,-0.34563 -0.85751,-0.34508l-0.82019,0.00151c-0.332,0.00065 -0.6346,0.1339 -0.85417,0.34785c-0.21981,0.21417 -0.35593,0.50912 -0.35536,0.83238l0.00873,4.48145c0.00066,0.32238 0.13785,0.61612 0.35825,0.82928c0.22062,0.21338 0.52444,0.34554 0.85744,0.34499l0.82033,-0.00152c0.33193,-0.00062 0.63452,-0.13382 0.85408,-0.34776c0.21983,-0.21418 0.35595,-0.50895 0.35538,-0.83237z" class="fil2"/>
   <path id="svg_10" d="m6.32599,13.95114l0,0zm1.20825,-1.17894l0,0zm-3.25611,-5.95717l0.0116,5.96454c0.00066,0.32246 0.13787,0.61629 0.35825,0.82944c0.22071,0.21339 0.52452,0.34562 0.85768,0.34507l0.82033,-0.00152c0.3321,-0.00062 0.63469,-0.13382 0.85426,-0.34776c0.21981,-0.21418 0.35603,-0.50904 0.35546,-0.8326l-0.01169,-5.96462c-0.00057,-0.32248 -0.13785,-0.61621 -0.35816,-0.82936c-0.22071,-0.21347 -0.52452,-0.34571 -0.85775,-0.34516l-0.82018,0.00152c-0.33217,0.00063 -0.63477,0.1339 -0.85434,0.34783c-0.21988,0.21428 -0.35603,0.5092 -0.35546,0.83262z" class="fil3"/>
   <path id="svg_11" d="m10.43138,15.43444l0,0zm1.20849,-1.17918l0,0zm-3.25962,-7.44017l0.01455,7.44762c0.00057,0.32246 0.13793,0.61637 0.3584,0.82959c0.22071,0.21348 0.52469,0.34578 0.85785,0.34523l0.82033,-0.00159c0.33209,-0.00062 0.63476,-0.13382 0.8545,-0.34792c0.2199,-0.21426 0.35612,-0.5092 0.35555,-0.83276l-0.01456,-7.44763c-0.00057,-0.32247 -0.13793,-0.61636 -0.3584,-0.8296c-0.22071,-0.21346 -0.52468,-0.34578 -0.85792,-0.34523l-0.82018,0.00152c-0.33217,0.00062 -0.63493,0.13389 -0.85458,0.34801c-0.2199,0.21425 -0.35611,0.50934 -0.35554,0.83276z" class="fil4"/>
   <path id="svg_12" d="m14.53589,16.92139l0,0zm1.20972,-1.18252l0,0zm-0.01757,-8.93094l0,0zm-1.2143,-1.17784l0,0zm-2.0298,1.18403l0.01749,8.93071l-0.00147,0c0.00065,0.32483 0.13826,0.62024 0.35947,0.8341c0.22005,0.21276 0.5233,0.34452 0.85628,0.34396l0.82035,-0.0015l0,0.00143c0.33193,-0.00064 0.63476,-0.13414 0.8549,-0.34856c0.21932,-0.21371 0.35522,-0.50944 0.35465,-0.83539l0.00147,0l-0.01757,-8.93094c-0.00066,-0.3246 -0.13827,-0.62001 -0.35947,-0.83388c-0.2199,-0.21276 -0.52314,-0.34451 -0.8563,-0.34396l-0.82016,0.0015l0,-0.00142c-0.3321,0.00064 -0.63502,0.13414 -0.855,0.34856c-0.21931,0.2137 -0.35521,0.50959 -0.35464,0.83539z" class="fil5"/>
   <path id="svg_13" d="m18.64146,18.4047l0,0zm1.20979,-1.18274l0,0zm-3.2651,-10.40777l0.02043,10.41378c0.00058,0.3258 0.13777,0.62121 0.358,0.8342c0.22005,0.21284 0.52346,0.34467 0.85653,0.34412l0,0.00142l0.82035,-0.00158c0.332,-0.00063 0.63493,-0.13413 0.85507,-0.34864c0.2194,-0.21378 0.35529,-0.50959 0.35472,-0.83553l-0.02044,-10.4138l0.00147,0c-0.00064,-0.32485 -0.13833,-0.62033 -0.35954,-0.8342c-0.22006,-0.21283 -0.52347,-0.3446 -0.85654,-0.34404l-0.82016,0.00151l0,-0.00142c-0.3321,0.00062 -0.6351,0.13414 -0.85516,0.34863c-0.21941,0.21378 -0.3553,0.50976 -0.35473,0.83555z" class="fil6"/>
   <path id="svg_14" d="m22.74672,19.88815l0,0zm1.21012,-1.18306l0,0zm-3.27007,-11.89086l0.02328,11.89689l0.00147,0c0.00057,0.32587 0.13778,0.62135 0.35816,0.83443c0.22014,0.2129 0.52355,0.34474 0.85671,0.34419l0,0.00143l0.82033,-0.00159c0.33209,-0.00063 0.63518,-0.13422 0.85532,-0.34871c0.21941,-0.21379 0.35537,-0.50968 0.3548,-0.83578l0.00147,0l-0.02329,-11.89689c-0.00064,-0.32492 -0.13842,-0.62049 -0.3597,-0.83442c-0.22014,-0.21292 -0.52354,-0.34468 -0.8567,-0.34412l-0.82017,0.0015l0,-0.00143c-0.33226,0.00064 -0.63526,0.13414 -0.8554,0.34872c-0.2195,0.21387 -0.35538,0.50983 -0.35481,0.83578l-0.00147,0z" class="fil0"/>
  </g>
 </g>
 <g>
  <title>Layer 2</title>
  <rect fill="none" y="0" x="0" height="100%" width="100%" id="backgroundrect"/>
 </g>
 <g>
  <title>background</title>
  <rect fill="none" id="canvas_background" height="402" width="582" y="-1" x="-1"/>
 </g>
</svg>